# xmcd
#
# Track frame offsets: 
#        150
#        34645
#        52411
#        75234
#        106813
#        128928
#        149252
#        179906
#        211958
#
# Disc length: 3075 seconds
#
# Revision: 1
# Processed by: cddbd v1.5.2PL0 Copyright (c) Steve Scherf et al.
# Submitted via: ExactAudioCopy v1.0b6
#
DISCID=800c0109
DTITLE=Suzi Lane - Ooh, La, La
DYEAR=1979
DGENRE=Disco
TTITLE0=Ooh, La, La
TTITLE1=Givin' It Up
TTITLE2=No One Home in the City
TTITLE3=Harmony
TTITLE4=Morning, Noon and Night
TTITLE5=Free Me
TTITLE6=Harmony (12" version)
TTITLE7=Ooh, La, La (12" version)
TTITLE8=Harmony (7" version)
EXTD=
EXTT0=
EXTT1=
EXTT2=
EXTT3=
EXTT4=
EXTT5=
EXTT6=
EXTT7=
EXTT8=
PLAYORDER=
